<svg viewBox="0 0 446 348" xmlns="http://www.w3.org/2000/svg" aria-hidden="true">
  <style>
    path { fill: none; stroke-linecap: round; stroke-linejoin: round; stroke: #7d5e3e; }
    @media (prefers-color-scheme: dark) { path { stroke: #caa97f; } }
  </style>
  <path fill="none" stroke-linecap="round" stroke-linejoin="round" stroke-width="3" d="M182 53.5C180.45 58.38 178.18 62.97 176.93 67.98 174.34 78.3 175.16 88.65 176.05 99 176.8 107.68 178.03 116.33 178.98 125 179.21 127.13 179.16 129.29 177.5 131"/>
  <path fill="none" stroke-linecap="round" stroke-linejoin="round" stroke-width="5" d="M136 96.5C142.38 105.87 146.02 116.33 146.88 127.51 147.68 137.96 146.76 148.42 143.47 158.49 142.2 162.36 141.63 166.59 137.58 169.13 136.47 169.82 135.96 171.87 135.35 173.44 133.98 176.93 133.66 180.81 131.5 184 128.64 188.26 129.33 192.11 132.45 196.04 135.22 199.54 134.31 205.72 131 208.75"/>
  <path fill="none" stroke-linecap="round" stroke-linejoin="round" stroke-width="5" d="M374 139.5C373.97 141.07 373.95 142.52 373.07 144.04 371.51 146.76 369.79 149.48 370.37 153.02 370.54 154.05 369.39 155.57 368.46 156.46 361.86 162.8 358.05 171.23 352.1 178.09 349.5 181.08 348 185.01 346.98 188.99 345.94 193.06 343.58 194.98 339.02 195.66 323.62 197.97 309.84 204.26 298.02 214.52 291.6 220.09 285.11 225.58 279.91 232.43 278.46 234.35 277.44 236.22 277 238.5"/>
  <path fill="none" stroke-linecap="round" stroke-linejoin="round" stroke-width="5" d="M203 334.5C205.77 337.85 209.85 337.66 213.51 337.9 221.06 338.4 228.53 337.56 236.03 336.15 243.3 334.78 250.44 337.11 257.52 338.93 261.07 339.85 264.77 340.65 268.5 339.5"/>
  <path fill="none" stroke-linecap="round" stroke-linejoin="round" stroke-width="5" d="M49 176.5C49.79 179.65 52.56 181.03 55.05 181.86 58.87 183.12 59.39 185.65 59.54 189 59.89 197.15 60.04 205.46 63.61 212.95 66.58 219.2 71.07 224.75 73.81 231.08 75.81 235.69 79.3 240.31 77.5 246"/>
  <path fill="none" stroke-linecap="round" stroke-linejoin="round" stroke-width="6" d="M365.5 266C362.94 266.77 361.83 268.92 360.46 270.97 355.23 278.77 350.19 286.76 342.99 292.99 335.11 299.8 325.22 302.38 315.51 302.07 308.04 301.84 302.06 304.3 295.46 306.37 285.92 309.36 278.29 315.18 270.41 320.88 268.01 322.62 264.41 323.65 261.55 321.43 258.08 318.74 253.05 320.5 250 317"/>
  <path fill="none" stroke-linecap="round" stroke-linejoin="round" stroke-width="3" d="M219.5 15C215.14 17.82 210.39 19.85 205.49 21.48 191.87 26.01 182.93 35.71 175.4 47.44 169.81 56.14 166.5 65.49 164.41 75.48 163.98 77.54 164.29 79.51 163.99 81.5 163.46 84.97 163.54 88.64 159.53 90.57 157.51 91.55 157.1 93.88 156.41 95.97 155.63 98.36 155.94 101.28 153.5 103"/>
  <path fill="none" stroke-linecap="round" stroke-linejoin="round" stroke-width="4" d="M357.5 85.5C357.4 94.95 359.39 104.2 360.19 113.53 361.07 123.77 361.45 134.26 358.21 144.57 356.58 149.76 355.28 155.03 352.99 160 351.6 163.03 350.05 165.95 346.5 167"/>
  <path fill="none" stroke-linecap="round" stroke-linejoin="round" stroke-width="5" d="M154.5 144.5C152.08 148.61 154.31 152.67 155.16 156.46 157.46 166.75 155.46 175.47 148.04 183.04 145.31 185.81 142.98 188.98 140.51 192.01 138.68 194.25 137.25 196.95 134 197.5"/>
  <path fill="none" stroke-linecap="round" stroke-linejoin="round" stroke-width="4" d="M67 110.5C65.46 118 62.71 125.18 59.34 131.92 54.57 141.47 57.12 150.63 59 160 65.45 165.11 65.39 173.47 68.97 180.02 70.77 183.32 70.84 187.15 71.75 190.69 73.36 196.94 73.46 203.65 76.57 209.46 77.72 211.61 78.9 213.75 81.43 215.14 84.45 216.78 85.48 220.32 86.47 223.51 87.94 228.26 90.36 232.56 92.5 237 93.53 239.12 95.56 240.01 97.5 241"/>
  <path fill="none" stroke-linecap="round" stroke-linejoin="round" stroke-width="5" d="M350 255.5C348.33 272.17 340.51 284.99 325.98 293.46 321.8 295.89 317.33 297.83 313 300"/>
  <path fill="none" stroke-linecap="round" stroke-linejoin="round" stroke-width="5" d="M162.5 42C152.71 47.28 149.26 56.9 146.08 66.53 144.02 72.74 142.03 78.96 139.55 85.02 138.63 87.25 137.65 89.26 135.5 90.5"/>
  <path fill="none" stroke-linecap="round" stroke-linejoin="round" stroke-width="4" d="M154 53.5C156.63 58.86 156.35 64.5 154.93 69.98 152.64 78.87 149.65 87.91 151.23 96.96 153.36 109.11 153.47 121.86 159.93 133.04 160.81 134.55 161.24 136.23 163 137"/>
  <path fill="none" stroke-linecap="round" stroke-linejoin="round" stroke-width="4" d="M296.5 83C299.12 87.72 296.46 92.16 295.38 96.47 292.43 108.17 286.72 118.44 277.47 126.47 276.83 127.03 275.83 127.17 275 127.5"/>
  <path fill="none" stroke-linecap="round" stroke-linejoin="round" stroke-width="5" d="M263.5 191.5C258.45 189.5 254.62 192.66 251.1 195.14 247.53 197.67 244.19 200.59 240.49 202.99 236.25 205.75 231.51 207.23 226.5 207.44 223.45 207.57 220.61 209.17 217.5 208.5"/>
  <path fill="none" stroke-linecap="round" stroke-linejoin="round" stroke-width="5" d="M187.5 156C191.4 163.29 190.87 171.26 190.35 178.99 189.82 186.84 187.72 194.24 182.23 200.7 179.79 203.56 177.88 207.54 178.07 212.52 178.22 216.44 173.72 220.31 172.67 224.54 170.79 232.15 165.86 238.88 166.08 247 166.15 249.94 163.74 250.71 162.5 252.5"/>
  <path fill="none" stroke-linecap="round" stroke-linejoin="round" stroke-width="5" d="M317 53C314.22 56.48 311.36 59.87 309.47 63.99 306.21 71.06 307.14 78.4 308.66 85.46 310.07 91.96 312.88 98.15 314.99 104.5 317.75 112.85 316.9 121.05 313.47 128.99 310.28 136.38 306.82 143.66 303.51 151.01 302.8 152.58 302.35 154.25 303 156"/>
  <path fill="none" stroke-linecap="round" stroke-linejoin="round" stroke-width="4" d="M284 51.5C284.51 59.68 286.15 67.87 283.52 76.01 281.55 82.09 278.06 87.12 273.52 91.52 272.45 92.57 271.26 92.5 270 92.5"/>
  <path fill="none" stroke-linecap="round" stroke-linejoin="round" stroke-width="6" d="M127.5 49.5C125.83 48.1 124.28 49.45 123.03 50.07 104.64 59.22 93.83 74.15 88.88 93.97 86.28 104.34 86.45 114.51 87.32 125.01 88.14 134.96 87.95 145.06 86.19 154.99 85.85 156.9 84.75 158.67 84 160.5"/>
  <path fill="none" stroke-linecap="round" stroke-linejoin="round" stroke-width="6" d="M210.5 99C210.39 112.6 217.52 125.19 216.03 139 215.21 146.65 212.14 153.34 208.61 160.06 205.51 165.97 202 171.89 201.93 179 201.91 181 201.32 183.16 200.43 184.97 198.76 188.36 199.16 191.42 201 194.5"/>
  <path fill="none" stroke-linecap="round" stroke-linejoin="round" stroke-width="4" d="M339.5 261.5C338.18 271.96 332.96 279.66 323.51 284.53 318.28 287.23 312.66 288.67 306.99 289.97 305.42 290.34 303.9 289.78 302.5 289"/>
  <path fill="none" stroke-linecap="round" stroke-linejoin="round" stroke-width="3" d="M325 206C320.74 208.3 316.1 209.73 311.93 212.38 303.93 217.47 298.18 223.94 294.77 232.91 293.74 235.63 295.08 237.7 294.5 240"/>
  <path fill="none" stroke-linecap="round" stroke-linejoin="round" stroke-width="4" d="M384 160.5C385.48 166.44 387.7 172.39 387.35 178.49 386.89 186.46 386.71 195.03 377.51 199.02 376.73 199.35 376.77 200.34 376.42 200.96 369.12 213.7 358.45 223.04 345.42 229.33 338.99 232.44 332.21 235.31 324.99 236.45 323.54 236.68 321.96 236.31 320.48 236.18 316.62 235.84 312.68 235.28 308.93 237.9 305.03 240.61 300.01 240.03 295.5 241"/>
  <path fill="none" stroke-linecap="round" stroke-linejoin="round" stroke-width="6" d="M262.5 323C257.39 331.63 249.23 329.99 241.51 328.93 230.32 327.4 218.86 326.74 208.66 331.36 201.34 334.68 194.53 332.94 187.5 333.53 185.22 333.72 183.73 332.7 182.5 331"/>
  <path fill="none" stroke-linecap="round" stroke-linejoin="round" stroke-width="6" d="M115 218.5C118.2 223.22 121.86 227.68 123 233.5 124.21 239.63 127.23 245.18 130.27 250.34 133.16 255.23 134.16 260.43 136.03 265.49 137.26 268.8 136.3 271.16 133.5 273"/>
  <path fill="none" stroke-linecap="round" stroke-linejoin="round" stroke-width="6" d="M85.5 166.5C82.59 170.76 81.53 175.4 82.49 180.5 83.45 185.58 80.57 190.36 81.4 195.52 81.83 198.18 81.99 199.77 84.81 201.77 91.96 206.82 97.76 213.3 98.62 222.99 99.16 229.16 99.91 235.07 98.32 241.33 97.68 243.87 98.39 248.53 101.56 250.41 110.25 255.57 112.84 264.33 115.4 273.03 116.86 278 118.47 282.91 116.77 288.58 115.66 292.29 119.68 295.57 121.47 299.02 124.83 305.48 127.93 312 134.96 315.59 137.59 316.93 140.01 317.92 143.01 317.57 144.28 317.42 145.76 316.96 147 318 152.16 322.31 157.3 320.74 162.51 318.02 166.73 315.82 171.34 314.77 176 314.01 180.49 313.28 185.02 312.75 189.48 311.9 190.12 311.78 191.1 311.26 191.46 311.55 194.54 314.13 198.69 313.32 201.95 314.85 208.33 317.85 214.26 316.78 220.55 314.64 223.45 313.65 223.45 310.63 225.93 309.36 229.38 307.59 232.33 304.83 235.5 302.5 238.63 300.19 240.82 297.21 242 293.5"/>
  <path fill="none" stroke-linecap="round" stroke-linejoin="round" stroke-width="4" d="M263.5 12.5C259.69 20.47 253.11 25.75 245.99 30.49 237.36 36.23 228.48 41.63 221.49 49.5 214.26 57.64 209.74 66.95 209.56 78 209.52 80.67 207.16 82.3 207.71 85.55 208.43 89.78 208.53 94.06 211.14 98.62 205.79 97.62 202.33 100.63 198.55 102.6 196.58 103.63 194.88 105.07 192.5 105"/>
  <path fill="none" stroke-linecap="round" stroke-linejoin="round" stroke-width="3" d="M153 26C148.79 29.53 147.02 34.04 147.48 39.5 147.76 42.78 147.06 45.88 144.98 48.49 140.08 54.62 135.32 60.93 128 64.5"/>
  <path fill="none" stroke-linecap="round" stroke-linejoin="round" stroke-width="5" d="M64.5 231.5C67.69 237.18 70.79 242.79 76.94 246.1 80.06 247.78 81.7 251.22 82.97 254.51 86.14 262.68 91.4 269.57 96.59 276.44 100.77 281.98 107.65 284.28 113.06 288.43 114.16 289.27 116.19 289.78 117.47 289.39 122.94 287.74 127.87 290.29 132.98 291.1 135.57 291.51 137 292.71 137.34 296.47 137.93 303.12 140.88 309.46 145 315"/>
  <path fill="none" stroke-linecap="round" stroke-linejoin="round" stroke-width="5" d="M85 116.5C77.2 121.76 71.38 128.37 69.4 137.98 68.76 141.07 66.59 143.69 65.89 146.98 64.79 152.13 64.92 157.51 63 162.5"/>
  <path fill="none" stroke-linecap="round" stroke-linejoin="round" stroke-width="5" d="M274.5 60.5C272.67 65.13 269.82 68.94 265.49 71.48 262.85 73.03 262.02 74.91 262.9 78.03 263.67 80.8 262.76 83.74 261.97 86.49 259.47 95.19 262.19 103.32 264.55 111.48 264.74 112.14 265.76 112.56 265.5 113.5 262.01 126.2 266.91 137.99 269.56 149.99 270.71 155.19 269.38 160.33 269.95 165.51 270.6 171.28 268.37 176.83 268.15 182.51 268.06 185.11 268.22 188.49 271.99 189.53 274.24 190.16 276.26 189.84 277.45 187.97 282.05 180.75 290.16 179.5 296.95 175.91 305.78 171.23 315.02 167.02 321.99 159.49 328.12 152.85 334.16 145.83 337.22 137.4 339.43 131.31 342.06 124.68 341.25 118.03 340.81 114.44 341.53 110.81 340.76 107.56 339.91 103.92 337.23 100.74 335.92 97.03 334.63 93.4 332.67 90 331 86.5"/>
  <path fill="none" stroke-linecap="round" stroke-linejoin="round" stroke-width="3" d="M308 126C299.25 134.8 294.59 145.76 291.56 157.52 291.06 159.46 291.33 161.64 292.5 163.5"/>
  <path fill="none" stroke-linecap="round" stroke-linejoin="round" stroke-width="4" d="M134.5 113C139.93 116.59 140.55 122.69 140.74 128.01 140.99 135.59 140.02 143.44 133.5 149"/>
  <path fill="none" stroke-linecap="round" stroke-linejoin="round" stroke-width="4" d="M170 124.5C166.52 128.64 167.25 135.04 162.16 138.38 166.08 145.66 167.79 153.59 171.91 160.55 173.18 162.69 173.17 165.27 171.03 167.53 162.42 176.64 157.99 187.69 156.54 200 156.39 201.3 156.83 202.67 157 204"/>
  <path fill="none" stroke-linecap="round" stroke-linejoin="round" stroke-width="5" d="M261.5 76C257.68 76.12 255.15 79.37 251.54 80.18 251 80.3 250 82.16 250.1 84.01 250.4 89.75 248.86 95.2 246.56 100.53 243.95 106.57 241.84 112.83 239.5 119 239.18 119.84 238.31 120.93 238.58 121.46 241.16 126.61 239.35 132.93 243 137.75"/>
  <path fill="none" stroke-linecap="round" stroke-linejoin="round" stroke-width="4" d="M328 48.5C326.6 60.91 325.81 73.27 331.5 85"/>
  <path fill="none" stroke-linecap="round" stroke-linejoin="round" stroke-width="3" d="M292.5 40.5C295.06 50.35 297.3 60.26 297.49 70.5 297.53 72.91 298.19 75.12 299.25 77.25"/>
  <path fill="none" stroke-linecap="round" stroke-linejoin="round" stroke-width="6" d="M231.5 251C230.5 251.04 229.61 250.64 228.48 250.94 219.72 253.21 211.64 258.39 209.98 266.6 207.23 280.28 195.97 284.83 187.42 292.41 185.38 294.22 182.63 295.22 181.5 298"/>
  <path fill="none" stroke-linecap="round" stroke-linejoin="round" stroke-width="4" d="M345 155C343.66 155.09 342.55 154.94 341.42 156.44 334.58 165.53 329.97 175.92 323.95 185.47 323.27 186.55 323.75 187.51 323.5 188.5"/>
  <path fill="none" stroke-linecap="round" stroke-linejoin="round" stroke-width="6" d="M216.5 26.5C215.26 34.11 210.12 39.01 204.48 43.48 200.75 46.43 196.69 49 193.03 52.04 186.25 57.66 185.2 65.08 189.01 73.49 190.09 75.87 191.02 78.4 192.57 80.45 195.49 84.33 194.03 88.31 192.77 91.92 192.24 93.43 191.51 94.84 191.5 96.5 191.44 110.14 191.14 123.77 195.45 137.02 198.28 145.69 200.63 154.52 207 161.5"/>
  <path fill="none" stroke-linecap="round" stroke-linejoin="round" stroke-width="5" d="M305.5 240.5C307.26 248.21 301.53 253.13 298.38 258.93 297.33 260.86 295.73 262.82 293.52 264.03 287.91 267.11 284.51 272.68 279.61 276.64 275.46 280 270.88 281.6 266.01 283.02 263.57 283.74 261.08 284.41 259 286"/>
  <path fill="none" stroke-linecap="round" stroke-linejoin="round" stroke-width="4" d="M205 108C204.49 114.25 206.15 120.33 206.46 126.5 206.8 133.29 203.56 138.06 197.5 141"/>
  <path fill="none" stroke-linecap="round" stroke-linejoin="round" stroke-width="6" d="M99.5 105.5C100.85 107.32 99.23 108.84 99.01 110.5 97.22 124.02 96.32 137.65 99.74 150.94 101.03 155.94 103.87 160.61 104.27 166 104.52 169.39 105.02 172.76 103.5 176"/>
  <path fill="none" stroke-linecap="round" stroke-linejoin="round" stroke-width="5" d="M357 145.5C348.47 146.79 346.52 148.99 345.93 157 345.7 160.03 345.11 163 346 166 346.84 168.82 344.58 170.58 343.39 172.43 338.78 179.67 333.59 186.43 324.51 188.54 323.61 188.75 322.77 189.42 322.01 190.01 312.5 197.42 301.56 201.52 290.04 204.65 285.83 205.8 281.89 208.12 277.5 209"/>
  <path fill="none" stroke-linecap="round" stroke-linejoin="round" stroke-width="3" d="M303.5 85.5C302.67 93.15 301.34 100.77 301.52 108.5 301.86 123.17 294.92 134.74 286 145.5"/>
  <path fill="none" stroke-linecap="round" stroke-linejoin="round" stroke-width="5" d="M126.5 70C128.17 74.83 130.11 79.59 131.41 84.52 132.37 88.19 136.9 90.29 135.91 94.48 135.06 98.06 131.74 100.3 129.79 103.37 126.32 108.84 121.41 113.73 118.37 119.2 113.19 128.52 107.62 138.04 105.97 149 105.61 151.39 104.92 153.76 103 155.5"/>
  <path fill="none" stroke-linecap="round" stroke-linejoin="round" stroke-width="4" d="M368 171.5C366.82 175.42 367.03 179.58 366.76 183.52 366.14 192.86 362.48 200.93 358.47 208.98 354.97 215.99 348.53 219.91 341.97 223.44 335.96 226.67 330.05 230.25 323.01 231.12 321.91 231.26 321 233 320 234"/>
  <path fill="none" stroke-linecap="round" stroke-linejoin="round" stroke-width="4" d="M273 194.5C277.08 202.04 276.45 210.02 274.9 217.98 274.55 219.76 273.69 221.82 271.98 222.98 265.38 227.45 261.26 232.91 260.23 241.47 259.05 251.15 255.24 260.41 251.5 269.5"/>
  <path fill="none" stroke-linecap="round" stroke-linejoin="round" stroke-width="6" d="M263 291.5C258.32 286.3 253.05 287.97 248.05 290.6 245.31 292.04 243.14 292.4 239.96 291.7 234.07 290.41 228.32 293.04 222.5 293.99 218.36 294.66 214.26 296.75 210 294.5"/>
  <path fill="none" stroke-linecap="round" stroke-linejoin="round" stroke-width="3" d="M304 65.5C304.54 73.46 299.49 78.67 294.37 83.35 291.05 86.38 288.55 89.49 286.34 93.41 281.59 101.85 275.38 109.18 266 113"/>
  <path fill="none" stroke-linecap="round" stroke-linejoin="round" stroke-width="5" d="M100.5 251C98.14 254.67 100.28 258.4 100.66 261.98 101.14 266.44 101.94 271.05 104.51 274.99 105.94 277.19 105.43 279.63 105.5 282"/>
  <path fill="none" stroke-linecap="round" stroke-linejoin="round" stroke-width="3" d="M325 173C316.55 180.57 306.54 184.96 295.48 186.88 293.79 187.17 292.63 187.53 293.09 188.97 294.36 192.97 292.21 195.85 290.55 199.02 289.68 200.67 289.18 202.55 289.5 204.5"/>
  <path fill="none" stroke-linecap="round" stroke-linejoin="round" stroke-width="8" d="M132.5 209C136.17 213.33 140.92 217.16 143.25 222.12 146.95 229.99 154.55 235.76 155.48 245 155.73 247.5 157.59 249.12 159.1 250.38 163.55 254.09 163.25 259.14 162.31 263.46 159.58 276.03 159.33 288.91 157 301.5"/>
  <path fill="none" stroke-linecap="round" stroke-linejoin="round" stroke-width="4" d="M266.5 28C264.58 33.19 263.06 38.59 259.49 42.99 255.63 47.74 251.4 51.9 244.5 51"/>
  <path fill="none" stroke-linecap="round" stroke-linejoin="round" stroke-width="3" d="M294 115.5C291.83 118.83 289.49 122.07 287.54 125.52 284.19 131.46 282.46 137.81 285.09 144.46 285.99 146.72 285.06 148.5 283.91 149.39 279.97 152.46 276.38 156.31 271 157"/>
  <path fill="none" stroke-linecap="round" stroke-linejoin="round" stroke-width="3" d="M233 40.5C234.59 41.42 234.33 42.98 234.55 44.49 235.59 51.52 234.64 58.28 232.6 65.03 232.09 66.7 230.91 67.39 230 68.5"/>
  <path fill="none" stroke-linecap="round" stroke-linejoin="round" stroke-width="5" d="M169 101C168.45 105.33 169.53 109.63 167.78 114.11 166.63 117.06 168.1 121.41 170.59 123.91 178.33 131.69 181.97 141.92 187.37 151.08 187.91 151.99 188.65 154.67 186.48 155.43 183.21 156.57 182.58 159.66 181.04 162.03 177.12 168.08 174.38 174.19 175.57 182.06 175.99 184.83 177.9 186.34 178.27 188.96 178.78 192.65 178.57 196.89 181.5 200"/>
  <path fill="none" stroke-linecap="round" stroke-linejoin="round" stroke-width="3" d="M285.5 46C276.62 48.99 268.55 53.56 261.08 59.11 259.5 60.28 258.15 60.46 256.5 60.5"/>
  <path fill="none" stroke-linecap="round" stroke-linejoin="round" stroke-width="8" d="M211 227C202.62 230.12 195.55 234.98 190.51 242.51 189.89 243.42 189.1 243.74 188.03 244.09 184.81 245.12 182.8 247.69 183.1 250.99 183.58 256.07 181.56 260.65 180.89 265.48 180.38 269.12 180.5 272.54 181.5 276"/>
  <path fill="none" stroke-linecap="round" stroke-linejoin="round" stroke-width="4" d="M365 234C357.57 234.51 350.7 237.11 344.03 240.07 335.51 243.86 328.63 249.67 323.93 257.96 322.43 260.6 319.38 261.91 316.49 262.42 308.63 263.82 302.47 268.82 295.62 272.24 291.6 274.24 288.09 274.8 284 274"/>
  <path fill="none" stroke-linecap="round" stroke-linejoin="round" stroke-width="5" d="M278 305C275.26 302.3 272.04 302.17 268.49 302.97 261.86 304.47 255.12 305.66 251 312"/>
  <path fill="none" stroke-linecap="round" stroke-linejoin="round" stroke-width="5" d="M360 256.5C353.86 255.46 347.81 252.84 341.47 255.95 339.13 257.1 336.67 258.04 334.02 258.58 330.75 259.24 329.51 262.72 326.99 264.49 317.49 271.14 309.52 279.17 302.24 288.29 297.57 294.13 290.89 298.53 285.5 304 275.19 304.93 267.15 312.89 256.51 313.2 253.71 313.28 250.69 310.86 248 313.5"/>
  <path fill="none" stroke-linecap="round" stroke-linejoin="round" stroke-width="3" d="M223 101.5C221.3 109.29 223.3 116.51 226.56 123.47 227.26 124.97 228.3 126.66 230.5 126.5"/>
  <path fill="none" stroke-linecap="round" stroke-linejoin="round" stroke-width="5" d="M272.5 242C270.33 248.33 268.23 254.69 265.97 260.99 265.08 263.46 264.46 265.88 265 268.5"/>
  <path fill="none" stroke-linecap="round" stroke-linejoin="round" stroke-width="5" d="M206.5 317C205.15 320.41 202 321.36 199 322.49 195.2 323.93 191.55 325.7 187.52 326.59 185.59 327.02 183.59 328.01 182.5 330"/>
  <path fill="none" stroke-linecap="round" stroke-linejoin="round" stroke-width="4" d="M90.5 74C84.76 79.45 82.45 86.16 82.97 94 83.13 96.51 83.37 98.81 86 100"/>
  <path fill="none" stroke-linecap="round" stroke-linejoin="round" stroke-width="4" d="M339.5 114.5C335.03 116.36 334.37 121.08 332.03 124.52 328.65 129.49 327.63 136.03 322 139.5"/>
  <path fill="none" stroke-linecap="round" stroke-linejoin="round" stroke-width="3" d="M319.25 234.5C319.93 243.93 317.04 252.45 312.41 260.45 311.81 261.49 312.69 261.83 312.5 262.5"/>
  <path fill="none" stroke-linecap="round" stroke-linejoin="round" stroke-width="5" d="M120.5 197C116.62 199.57 116.03 204.61 112.57 207.58 111.41 208.57 111.46 210.77 112.56 211.95 115.35 214.94 114.65 217.54 112.59 220.56 111.84 221.67 111.92 223.52 112.04 225 112.7 232.82 112.97 240.65 112.5 248.5 112.41 250.08 112.77 250.97 114.4 252.14 119.94 256.15 123.58 262.09 127.26 267.66 129.31 270.75 133.06 272.49 133.7 276.97 134.38 281.68 135.02 286.27 134.5 291"/>
  <path fill="none" stroke-linecap="round" stroke-linejoin="round" stroke-width="5" d="M214.5 240.5C209.97 241.58 209.26 246.33 206.75 249.21 202.3 254.32 198.81 260.43 196.5 267"/>
  <path fill="none" stroke-linecap="round" stroke-linejoin="round" stroke-width="5" d="M262 215C262.17 215.5 262.55 216.04 262.47 216.49 261.21 223.74 249.44 234.06 242 234.5"/>
  <path fill="none" stroke-linecap="round" stroke-linejoin="round" stroke-width="5" d="M155.5 206C156.34 207.77 155.77 210.02 157.47 211.53 157.99 211.99 158.61 213 158.43 213.47 156 219.95 158.74 226.5 158.06 233.01 157.79 235.71 156.47 237.47 154.5 239"/>
  <path fill="none" stroke-linecap="round" stroke-linejoin="round" stroke-width="5" d="M161.5 90.5C162.8 96.1 161.17 101.92 162.94 107.52 163.8 110.21 164.41 112.89 167 114.5"/>
  <path fill="none" stroke-linecap="round" stroke-linejoin="round" stroke-width="4" d="M326 89.5C326.33 90.17 327.03 90.89 326.94 91.49 325.72 99.79 324.65 108.18 317.5 114"/>
  <path fill="none" stroke-linecap="round" stroke-linejoin="round" stroke-width="4" d="M253 111.5C254.49 121.02 252.33 129.35 245 136"/>
  <path fill="none" stroke-linecap="round" stroke-linejoin="round" stroke-width="4" d="M108.25 62C109.77 65.63 107.59 68.98 107.42 72.5 107.2 77.2 106.2 81.89 107.98 86.51 108.15 86.94 108.02 87.5 108 88 107.64 96.91 112.3 112.13 117.5 119"/>
  <path fill="none" stroke-linecap="round" stroke-linejoin="round" stroke-width="6" d="M77.5 156C80.48 158.6 85.46 159.51 85.07 165 85.04 165.32 85.87 165.77 86.45 166.1 92.03 169.29 96.34 174.35 102.94 176.22 105.39 176.92 106.73 179.85 106.72 183.5 106.7 191.43 108.82 199.08 113 206"/>
  <path fill="none" stroke-linecap="round" stroke-linejoin="round" stroke-width="5" d="M265.5 137C263.81 137.97 262 138.48 260.42 139.91 256.56 143.39 253.9 148.19 248.59 150.23 247.45 150.66 246.83 153.82 246.99 156 247.49 162.64 246.19 168.75 243.71 175.08 239.38 186.1 231.53 193.65 222.54 200.55 220.93 201.78 219.33 202.04 217.5 202"/>
  <path fill="none" stroke-linecap="round" stroke-linejoin="round" stroke-width="7" d="M275 210.5C270.87 211.23 266.39 211 263.05 214.05 261.61 215.37 260.32 214.07 258.97 214.25 254.45 214.87 250.54 216.28 246.33 218.1 242.14 219.92 236.76 219.72 232 220.99 228.17 222.02 224.19 222.64 220.53 224.09 215.08 226.24 214.02 229.85 215.49 238.5 215.55 238.83 215.5 239.17 215.5 239.5"/>
  <path fill="none" stroke-linecap="round" stroke-linejoin="round" stroke-width="4" d="M296.5 282C289.94 282.27 283.65 283.74 277.49 285.96 275.53 286.67 273.94 287.62 273 289.5"/>
  <path fill="none" stroke-linecap="round" stroke-linejoin="round" stroke-width="4" d="M303.5 316C301.1 318.6 297.71 319.95 295.72 323.33 294.8 324.89 291.4 326.22 288.5 326.04 285.73 325.86 283.44 327.25 280.94 328.36 273.77 331.53 266.25 333.26 258.5 330"/>
  <path fill="none" stroke-linecap="round" stroke-linejoin="round" stroke-width="6" d="M190 244.5C192.47 246.85 192.45 249.89 192.54 253 192.69 258.02 191.57 263.19 194 268"/>
  <path fill="none" stroke-linecap="round" stroke-linejoin="round" stroke-width="4" d="M326 115.5C323.27 119.81 321.84 124.59 320.35 129.45 318.77 134.62 322.49 139.09 321.32 144.06 317.26 145.38 315.35 149.3 312.03 151.55 309.47 153.28 307.58 156.09 304 156.05 303.5 156.04 302.98 156.64 302.5 157 293.42 164.08 290.41 165.81 281.51 168.52 278.18 169.54 275.17 171.61 271.5 171.5"/>
  <path fill="none" stroke-linecap="round" stroke-linejoin="round" stroke-width="6" d="M160 320.5C165.05 327.93 172.73 329.83 181 330.5"/>
  <path fill="none" stroke-linecap="round" stroke-linejoin="round" stroke-width="3" d="M226 55.5C228.75 59.76 227.87 65.04 229.93 69.53 230.72 71.26 229.27 73.11 228.4 74.43 225.33 79.1 221.9 83.55 218.46 87.97 217.47 89.23 216.81 90.41 217 92"/>
  <path fill="none" stroke-linecap="round" stroke-linejoin="round" stroke-width="4" d="M268 174.5C266.49 174.55 265.29 173.83 263.4 174.81 258.19 177.52 252.4 179.11 247.05 181.61 245.03 182.56 243.42 182.74 241.5 182"/>
  <path fill="none" stroke-linecap="round" stroke-linejoin="round" stroke-width="4" d="M182 216C185.36 220.81 185.37 226.76 187.41 232.04 188.33 234.42 189.04 236.76 191 238.5"/>
  <path fill="none" stroke-linecap="round" stroke-linejoin="round" stroke-width="4" d="M295.5 293C294.67 292.5 293.8 291.52 293.01 291.57 284.62 292.18 276.37 289.81 268 290.54 265.85 290.73 264 290.86 262.28 293.35 260.01 296.63 256.17 298.84 252.99 301.5 252.36 302.03 251.64 302.47 251 303.01 244.98 308.11 244.73 309.6 248.75 316"/>
  <path fill="none" stroke-linecap="round" stroke-linejoin="round" stroke-width="3" d="M293 62.5C293.05 68.58 292.15 74.55 291.06 80.51 290.8 81.94 289.77 83.67 291.5 85"/>
  <path fill="none" stroke-linecap="round" stroke-linejoin="round" stroke-width="4" d="M240 269.5C237.04 278.04 227.61 283.45 220 281"/>
  <path fill="none" stroke-linecap="round" stroke-linejoin="round" stroke-width="3" d="M377 168.5C376.16 174.33 374.82 179.98 371.53 185.02 370.36 186.82 369.56 188.85 367 189"/>
  <path fill="none" stroke-linecap="round" stroke-linejoin="round" stroke-width="6" d="M137 270C139.73 271.12 141.41 273.18 141.97 276.01 143.11 281.68 146.33 286.68 147.09 292.49 147.23 293.57 147.08 294.5 147 295.5"/>
  <path fill="none" stroke-linecap="round" stroke-linejoin="round" stroke-width="5" d="M268.5 187.5C265.97 189.43 264.34 191.53 263.19 194.9 261.57 199.64 257.97 203.77 254.94 207.95 253.55 209.86 252.63 211.65 253 214"/>
  <path fill="none" stroke-linecap="round" stroke-linejoin="round" stroke-width="4" d="M274 131.5C275.83 135.48 276.29 139.74 275.92 143.99 275.62 147.32 274.37 150.37 270 150"/>
  <path fill="none" stroke-linecap="round" stroke-linejoin="round" stroke-width="4" d="M268.5 160.5C262.37 161.01 257.55 164.52 252.51 167.51 250.79 168.53 249.25 170.03 247 169"/>
  <path fill="none" stroke-linecap="round" stroke-linejoin="round" stroke-width="6" d="M237.5 239C235 237.33 232.53 238.71 229.99 238.94 225 239.38 219.98 239.45 214.8 239.69 217.85 244.89 215.61 250.43 217 255.5"/>
  <path fill="none" stroke-linecap="round" stroke-linejoin="round" stroke-width="6" d="M258.5 243C252.58 242.57 247.07 244.61 241.54 246.16 239.93 246.61 238.83 245.81 237.5 246"/>
  <path fill="none" stroke-linecap="round" stroke-linejoin="round" stroke-width="4" d="M132.5 154.5C122.83 160.03 119.36 169.17 118.04 179.51 117.86 180.91 117.78 182.28 117 183.5"/>
  <path fill="none" stroke-linecap="round" stroke-linejoin="round" stroke-width="4" d="M129 112.5C129.28 116.67 129.65 120.79 129.11 125.01 128.73 128.05 128.33 130.83 126 133"/>
  <path fill="none" stroke-linecap="round" stroke-linejoin="round" stroke-width="3" d="M385 214C381.59 221.15 377.83 227.87 369.53 230.59 367.37 231.3 366.46 233.31 365.78 235.94 364.26 241.88 360.18 246.41 354.47 248.92 351.97 250.02 350.18 251.35 349.5 254"/>
  <path fill="none" stroke-linecap="round" stroke-linejoin="round" stroke-width="4" d="M202 46.5C209.44 57.62 206.39 67.71 193.95 72.37 192.8 72.8 192.29 74.08 191 74"/>
  <path fill="none" stroke-linecap="round" stroke-linejoin="round" stroke-width="6" d="M260 271.5C256.82 270 253.32 270.62 249.7 269.83 248.45 274.46 245.67 278.26 242.88 281.91 240.44 285.11 240.17 288.04 241.5 291.5"/>
  <path fill="none" stroke-linecap="round" stroke-linejoin="round" stroke-width="5" d="M234 162.5C233.55 169.21 226.77 177.4 219.5 180"/>
  <path fill="none" stroke-linecap="round" stroke-linejoin="round" stroke-width="4" d="M317.5 66.5C317.08 71.64 319.78 75.79 322.11 79.94 323.05 81.62 323.76 83.54 325.05 84.96 327.08 87.19 326.49 88.36 324.01 89.53 319.96 91.46 317.7 95.59 314 98"/>
  <path fill="none" stroke-linecap="round" stroke-linejoin="round" stroke-width="4" d="M180 140.5C177.69 143.28 178.3 146.83 177.52 150.01 176.58 153.84 176.1 157.84 173 160.75"/>
  <path fill="none" stroke-linecap="round" stroke-linejoin="round" stroke-width="3" d="M93 178C94.67 182.33 96.5 186.61 97.93 191.02 98.65 193.26 99.41 195.79 97.5 198"/>
  <path fill="none" stroke-linecap="round" stroke-linejoin="round" stroke-width="4" d="M363 196C358.4 196.32 354.4 199.6 349.49 198.55 347.38 198.1 345.17 198.17 343 198"/>
  <path fill="none" stroke-linecap="round" stroke-linejoin="round" stroke-width="5" d="M251 69.5C247.56 69.93 245.92 72.88 244.13 75.1 241.9 77.86 239.37 80.46 236.42 81.82 231.96 83.88 230.77 86.73 232.03 90.99 234.09 97.94 232.55 105 232.91 112 233.5 123.55 230.49 133.86 221.06 141.57 219.65 142.72 218.37 142.3 217 142.5"/>
  <path fill="none" stroke-linecap="round" stroke-linejoin="round" stroke-width="3" d="M132 222.5C132.73 227.93 133.08 233.44 135.51 238.5 136.01 239.54 136.38 240.73 137.75 241"/>
  <path fill="none" stroke-linecap="round" stroke-linejoin="round" stroke-width="5" d="M141.5 45C137.84 44.37 134.2 45.56 131.09 46.74 126.57 48.44 128.42 53.86 127.03 57.51 126.81 58.09 126.87 58.86 127.02 59.5 128.39 65.21 126.47 69.06 121.65 72.69 117.6 75.75 114.71 80.4 111.58 84.56 110.68 85.75 109.64 86.34 108.5 87"/>
  <path fill="none" stroke-linecap="round" stroke-linejoin="round" stroke-width="3" d="M163.5 27C156.62 31.79 153.33 38.96 155 45.5"/>
  <path fill="none" stroke-linecap="round" stroke-linejoin="round" stroke-width="5" d="M83.5 130C80.34 132.17 79.77 135.72 78.4 138.96 76.21 144.09 76.08 148.94 76.58 154.54 77 159.32 76.69 164.24 78 169 78.59 171.14 79.44 173.09 82 173.5"/>
  <path fill="none" stroke-linecap="round" stroke-linejoin="round" stroke-width="6" d="M242 138.5C239.27 143.23 235.59 146.85 231.17 150.23 227.38 153.13 223.11 156.92 223.95 163.01 224.01 163.45 223.43 164.12 222.99 164.48 218.38 168.24 218.51 173.16 218.85 178.51 219.08 182.11 217.44 185.57 213.5 186.99 208.6 188.76 204.45 192.22 200.8 195.35 197.08 198.56 203.29 203.01 203.19 207.5 203.15 209.72 205.57 209.17 207.53 208.6 210.08 207.86 212.83 207.83 215.5 207.5"/>
  <path fill="none" stroke-linecap="round" stroke-linejoin="round" stroke-width="5" d="M342 196C343.13 201.96 337.36 211.17 331.52 213.56 323.92 216.67 317.63 221.67 313.07 228.55 311.77 230.52 312.54 233.16 312.5 235.5"/>
  <path fill="none" stroke-linecap="round" stroke-linejoin="round" stroke-width="8" d="M209 267C204.81 266.49 200.75 268.39 196.48 267.6 194.96 267.32 193.68 268.59 192.38 269.88 189.74 272.48 187.06 275.47 182.99 275.95 182.08 276.06 181.28 276.31 181.04 277.01 178.79 283.69 171.35 286.39 168.9 292.96 168.53 293.94 167.8 294.94 167.52 296.01 166.14 301.27 163.99 303.24 158.53 302.33 155.48 301.82 153.65 303.34 153.18 305.05 151.89 309.66 147.94 312.61 146.5 317"/>
  <path fill="none" stroke-linecap="round" stroke-linejoin="round" stroke-width="4" d="M277 74.5C275.03 78.93 271.38 82.66 270.61 87.52 269.87 92.26 266.99 96.25 266.49 101 266.35 102.31 265.41 103.16 264.5 104"/>
  <path fill="none" stroke-linecap="round" stroke-linejoin="round" stroke-width="4" d="M249.5 83C243.01 83.52 240.04 88.66 236.54 93.03 235.63 94.17 235.11 95.61 233.5 96"/>
  <path fill="none" stroke-linecap="round" stroke-linejoin="round" stroke-width="6" d="M167.5 299.5C168.33 299.67 169.29 300.18 169.98 299.95 177.7 297.3 185.8 301.19 193.51 298.54 194.41 298.23 195.53 298.34 196.49 298.53 203.59 299.91 206.6 298.58 210.49 291.99 213.72 286.51 218.67 282.26 221.5 276.5 224.55 270.27 229.75 264.77 230.72 257.96 231.71 250.99 236.56 246.12 238.48 239.64 239.79 235.19 241.4 230.1 244.4 225.93 245.61 224.24 246.35 221.85 245.5 219.5"/>
  <path fill="none" stroke-linecap="round" stroke-linejoin="round" stroke-width="3" d="M254 34.5C253.59 35.81 252.97 36.93 252.05 38.04 246.04 45.23 242.17 53.71 238 62 237.04 63.9 236.13 65.8 237 68"/>
  <path fill="none" stroke-linecap="round" stroke-linejoin="round" stroke-width="5" d="M130 210.5C126.87 213.1 125.98 217.01 125.21 220.55 124.58 223.45 123.23 225.76 122 228.25"/>
  <path fill="none" stroke-linecap="round" stroke-linejoin="round" stroke-width="3" d="M283.5 151C286.09 155.39 283.17 159.1 281.97 162.99 281.43 164.72 279.86 166.22 281 168.25"/>
  <path fill="none" stroke-linecap="round" stroke-linejoin="round" stroke-width="3" d="M341 86.5C341.5 90.33 342.1 94.16 342.46 98 342.64 99.93 342.15 101.84 341 103.5"/>
  <path fill="none" stroke-linecap="round" stroke-linejoin="round" stroke-width="3" d="M78 107.5C77 111.33 76.13 115.21 74.95 118.98 74.35 120.91 74.33 122.67 75 124.5"/>
  <path fill="none" stroke-linecap="round" stroke-linejoin="round" stroke-width="5" d="M195 239.5C198.27 240.99 201.67 239.72 205 239.93 207.39 240.09 209.75 240.05 212 241"/>
  <path fill="none" stroke-linecap="round" stroke-linejoin="round" stroke-width="5" d="M385 140.5C382.48 145.17 378.68 148.78 375.02 152.52 373.72 153.83 372.18 154.05 370.5 154"/>
  <path fill="none" stroke-linecap="round" stroke-linejoin="round" stroke-width="4" d="M273 190.5C272.99 192.31 272.67 193.84 271.62 195.57 268.7 200.41 265.93 205.47 266.5 211.5"/>
  <path fill="none" stroke-linecap="round" stroke-linejoin="round" stroke-width="4" d="M179 282.5C182.07 284.46 185.33 283.55 188.49 282.95 191.02 282.47 193.44 281.77 195.5 284"/>
  <path fill="none" stroke-linecap="round" stroke-linejoin="round" stroke-width="5" d="M117 137.5C118.21 138.36 117.18 139.87 118.39 141.1 122.06 144.85 121.27 149.88 120.88 154.49 120.63 157.45 122.45 159.47 123 162"/>
  <path fill="none" stroke-linecap="round" stroke-linejoin="round" stroke-width="6" d="M205 210C207.17 215.33 209.3 220.68 211.53 225.99 212.04 227.2 213.21 227.77 214.5 228"/>
  <path fill="none" stroke-linecap="round" stroke-linejoin="round" stroke-width="4" d="M295 307.5C297.59 311.46 302.27 312.8 305.67 315.81 306.99 316.97 308.31 318.17 309.5 319.5"/>
  <path fill="none" stroke-linecap="round" stroke-linejoin="round" stroke-width="5" d="M261 241.5C266.23 241.09 271.81 242.76 276.5 239 282.46 242.05 289.12 236.52 295 240.5"/>
  <path fill="none" stroke-linecap="round" stroke-linejoin="round" stroke-width="6" d="M353.5 114.5C352.87 114.91 351.93 113.71 351.38 115.46 350.19 119.26 349.51 123.07 348.77 126.96 347.67 132.66 347.84 138.32 347.33 143.98 347.17 145.74 347.33 147.06 348 148.5"/>
  <path fill="none" stroke-linecap="round" stroke-linejoin="round" stroke-width="3" d="M145 190C148.96 194.58 150.09 201.05 154.99 205.41 158.22 204.15 160.33 201.95 162.6 199.6 165.45 196.65 167.63 192.74 172 191.5"/>
  <path fill="none" stroke-linecap="round" stroke-linejoin="round" stroke-width="8" d="M149 320.5C147.67 326.38 150.35 331.38 152.5 336.5"/>
  <path fill="none" stroke-linecap="round" stroke-linejoin="round" stroke-width="4" d="M181.5 79.5C184.35 82.27 185.52 85.99 186.95 89.52 187.82 91.66 188.7 93.61 191 94.5"/>
  <path fill="none" stroke-linecap="round" stroke-linejoin="round" stroke-width="5" d="M83.5 184.5C84.79 185.36 86.06 186.04 87.07 187.45 92.6 195.17 99.89 201.27 106.47 208.02 107.92 209.51 109.53 210.1 111.5 210"/>
  <path fill="none" stroke-linecap="round" stroke-linejoin="round" stroke-width="4" d="M218.5 169C214.9 168.27 213.33 171.37 211.02 173.02 208.22 175.02 206.79 178.71 203 179.5"/>
  <path fill="none" stroke-linecap="round" stroke-linejoin="round" stroke-width="4" d="M112 110.5C107.86 112.13 105.5 115.65 103.02 119.02 101.88 120.57 100.89 122.23 99 123"/>
  <path fill="none" stroke-linecap="round" stroke-linejoin="round" stroke-width="5" d="M175 185.5C171.71 192.99 171.62 200.35 176 207.5"/>
  <path fill="none" stroke-linecap="round" stroke-linejoin="round" stroke-width="4" d="M327.5 274.5C322.88 277.39 318.01 279.06 312.5 277.5"/>
  <path fill="none" stroke-linecap="round" stroke-linejoin="round" stroke-width="6" d="M215.5 187C217.74 191.99 216.36 197.36 216.81 202.52 217.43 209.73 217.75 216.94 219.5 224"/>
  <path fill="none" stroke-linecap="round" stroke-linejoin="round" stroke-width="3" d="M145.5 228.5C140.22 231.9 140.1 237.96 138.04 243.02 137.82 243.57 137.7 244.47 138.5 245.01 142.35 247.62 143.9 252.66 148.5 254.5"/>
  <path fill="none" stroke-linecap="round" stroke-linejoin="round" stroke-width="4" d="M148.5 259C146.44 260.88 146.08 263.44 145.43 265.98 144.74 268.72 144.17 271.74 141 273"/>
  <path fill="none" stroke-linecap="round" stroke-linejoin="round" stroke-width="3" d="M347.5 209C342.45 212.33 339.93 216.83 341 223"/>
  <path fill="none" stroke-linecap="round" stroke-linejoin="round" stroke-width="4" d="M122 95.25C120.71 100.82 118.34 105.67 113 108.5"/>
  <path fill="none" stroke-linecap="round" stroke-linejoin="round" stroke-width="3" d="M174 36.5C170.1 37.65 166.29 39.01 162.8 41.72 166.24 46.19 165.42 52.45 169 57"/>
  <path fill="none" stroke-linecap="round" stroke-linejoin="round" stroke-width="3" d="M249.5 58C242.83 61.55 237.85 66.84 234.61 73.55 233.24 76.37 231.36 79.57 233.5 83"/>
  <path fill="none" stroke-linecap="round" stroke-linejoin="round" stroke-width="5" d="M278.5 188C281.26 189.49 284.15 189.39 286.99 188.46 288.83 187.85 290.66 188.11 292.5 188"/>
  <path fill="none" stroke-linecap="round" stroke-linejoin="round" stroke-width="6" d="M246 313C238.46 315.51 230.89 317.43 223 314.5"/>
  <path fill="none" stroke-linecap="round" stroke-linejoin="round" stroke-width="4" d="M155.5 246.5C151.59 248.03 151.32 252.55 148.56 255.06 148.14 255.44 148.18 257.2 148.55 257.42 153.67 260.51 153.67 267.65 159.01 270.48 159.27 270.62 159.67 270.5 160 270.5"/>
  <path fill="none" stroke-linecap="round" stroke-linejoin="round" stroke-width="5" d="M126.5 139C129.62 143.59 132.64 147.73 133.53 153.92 134.24 158.86 133.49 164.74 137 169.25"/>
  <path fill="none" stroke-linecap="round" stroke-linejoin="round" stroke-width="4" d="M171.5 232C176.55 234.86 176.88 240.45 179 245"/>
  <path fill="none" stroke-linecap="round" stroke-linejoin="round" stroke-width="4" d="M159 214C163.15 216.3 164.49 221.09 167.87 224.14 168.91 225.08 170.03 225.29 171 226"/>
  <path fill="none" stroke-linecap="round" stroke-linejoin="round" stroke-width="3" d="M361 186C357.2 190.05 352.78 192.51 347 191.5"/>
  <path fill="none" stroke-linecap="round" stroke-linejoin="round" stroke-width="4" d="M199.5 31.5C196.17 36.77 199 40.9 202 45"/>
  <path fill="none" stroke-linecap="round" stroke-linejoin="round" stroke-width="3" d="M230.5 87C223.88 90.27 216.49 92.12 211 97.5"/>
  <path fill="none" stroke-linecap="round" stroke-linejoin="round" stroke-width="4" d="M294.5 275C297.19 276.96 300.33 277.33 303.5 277.47 305.06 277.54 306.58 277.41 307.5 279"/>
  <path fill="none" stroke-linecap="round" stroke-linejoin="round" stroke-width="6" d="M83 202C82.35 204.5 81.87 207.11 83.06 209.47 84.14 211.59 83.01 213.2 82.5 215"/>
  <path fill="none" stroke-linecap="round" stroke-linejoin="round" stroke-width="3" d="M313 101.5C310.62 102.68 309.36 104.82 307.92 106.95 306.55 108.96 305.59 111.51 303 112.5"/>
  <path fill="none" stroke-linecap="round" stroke-linejoin="round" stroke-width="3" d="M267 50C259.94 53.01 255.98 58.91 253.08 65.53 251.14 69.94 249.98 74.67 252 79.5"/>
  <path fill="none" stroke-linecap="round" stroke-linejoin="round" stroke-width="4" d="M219.5 68.5C217.22 72.8 215.75 77.84 210 79"/>
  <path fill="none" stroke-linecap="round" stroke-linejoin="round" stroke-width="5" d="M183.5 247C180.17 244.88 176.72 244.89 173.54 247.06 171.29 248.59 169.01 248.81 166.5 248.5"/>
  <path fill="none" stroke-linecap="round" stroke-linejoin="round" stroke-width="4" d="M207 82.5C202.92 82.97 198.91 83.72 195 85"/>
  <path fill="none" stroke-linecap="round" stroke-linejoin="round" stroke-width="3" d="M155.5 210C150.83 212.25 150.33 217.71 147 221"/>
  <path fill="none" stroke-linecap="round" stroke-linejoin="round" stroke-width="8" d="M199 198.5C194.9 201.05 191.25 203.42 189.65 208.9 188.53 212.72 183.26 213.3 179 213"/>
  <path fill="none" stroke-linecap="round" stroke-linejoin="round" stroke-width="6" d="M200 300.5C200.11 303.32 197.32 303.82 195.99 305.49 194.52 307.35 192.09 308.42 191.5 311"/>
  <path fill="none" stroke-linecap="round" stroke-linejoin="round" stroke-width="5" d="M106.5 94C105.67 95 104.37 95.88 104.07 97.02 101.89 105.38 94.17 107 88 110.5"/>
  <path fill="none" stroke-linecap="round" stroke-linejoin="round" stroke-width="4" d="M232 317C231.11 319.11 229.71 320.48 227.58 321.64 225.38 322.83 222.66 324 222 327"/>
  <path fill="none" stroke-linecap="round" stroke-linejoin="round" stroke-width="4" d="M323 219.5C324.51 223.41 321.32 227.11 322.5 231"/>
  <path fill="none" stroke-linecap="round" stroke-linejoin="round" stroke-width="5" d="M271 322C272.77 324.32 275.53 324.58 278.01 324.88 279.9 325.11 281.23 325.82 282.5 327"/>
  <path fill="none" stroke-linecap="round" stroke-linejoin="round" stroke-width="4" d="M276.5 115.5C275.44 119.26 273.75 122.6 274.47 127.05 275.25 131.88 270.16 132.74 266.5 134"/>
  <path fill="none" stroke-linecap="round" stroke-linejoin="round" stroke-width="3" d="M319.5 311.5C315.53 312.45 311.24 312.47 308 315.5"/>
  <path fill="none" stroke-linecap="round" stroke-linejoin="round" stroke-width="5" d="M128.5 189.5C126.67 189.67 124.53 189.29 123.07 190.12 120.82 191.41 120.04 194.53 121.16 196.41 123.62 200.56 125.04 205.7 130 208"/>
  <path fill="none" stroke-linecap="round" stroke-linejoin="round" stroke-width="3" d="M71 191C66.88 190.91 64.16 186.98 60 187"/>
  <path fill="none" stroke-linecap="round" stroke-linejoin="round" stroke-width="5" d="M237.25 147C239.15 150.55 236.76 154.4 238 158"/>
  <path fill="none" stroke-linecap="round" stroke-linejoin="round" stroke-width="3" d="M102 205C100.92 206.7 101.04 208.6 100.97 210.5 100.9 212.5 100.94 214.63 99 216"/>
  <path fill="none" stroke-linecap="round" stroke-linejoin="round" stroke-width="6" d="M229 265.5C235.42 268.14 242.39 268.6 249 270.5"/>
  <path fill="none" stroke-linecap="round" stroke-linejoin="round" stroke-width="5" d="M204 281C205.18 282.38 206.55 283.29 208.5 283.01 210.96 282.66 213.09 283.51 215 285"/>
  <path fill="none" stroke-linecap="round" stroke-linejoin="round" stroke-width="4" d="M351.5 238C352.01 241.65 350.4 245.49 352.5 249"/>
  <path fill="none" stroke-linecap="round" stroke-linejoin="round" stroke-width="3" d="M117.5 43.5C116.54 47.07 112.7 49.68 114 54"/>
  <path fill="none" stroke-linecap="round" stroke-linejoin="round" stroke-width="4" d="M245 258C244.17 261.5 243.33 265 242.5 268.5"/>
  <path fill="none" stroke-linecap="round" stroke-linejoin="round" stroke-width="4" d="M351.5 272.5C351.88 276.03 349.52 279.42 351 283"/>
  <path fill="none" stroke-linecap="round" stroke-linejoin="round" stroke-width="6" d="M118 123.25C121.66 125.89 122.35 130.75 125.86 133.67 126.95 134.59 127.25 137.55 125.53 139.53 124.05 141.23 122.83 143.17 121.5 145"/>
  <path fill="none" stroke-linecap="round" stroke-linejoin="round" stroke-width="3" d="M106.5 233.5C108.38 236.81 107.65 241.4 111.5 243.75"/>
  <path fill="none" stroke-linecap="round" stroke-linejoin="round" stroke-width="4" d="M290.5 166C291.5 169.5 292.5 173 293.5 176.5"/>
  <path fill="none" stroke-linecap="round" stroke-linejoin="round" stroke-width="8" d="M138 294.5C142.87 295.32 148.59 294.34 150.59 300.97 150.93 302.09 152.5 302.83 153.5 303.75"/>
  <path fill="none" stroke-linecap="round" stroke-linejoin="round" stroke-width="5" d="M244 139.5C247.04 142.15 246.35 146.29 248 149.5"/>
  <path fill="none" stroke-linecap="round" stroke-linejoin="round" stroke-width="6" d="M107.5 180.5C113.87 181.61 119 184.51 122 190.5"/>
  <path fill="none" stroke-linecap="round" stroke-linejoin="round" stroke-width="5" d="M299.5 162.5C300 165.67 300.5 168.83 301 172"/>
  <path fill="none" stroke-linecap="round" stroke-linejoin="round" stroke-width="6" d="M246 155.5C242.65 155.77 239.57 157.18 237.08 159.11 233.12 162.18 228.61 162.79 224 163.5"/>
  <path fill="none" stroke-linecap="round" stroke-linejoin="round" stroke-width="3" d="M231.5 27.5C232.33 30.5 233.17 33.5 234 36.5"/>
  <path fill="none" stroke-linecap="round" stroke-linejoin="round" stroke-width="3" d="M196 145C192.83 146.39 191.73 150.18 188.5 151.5"/>
  <path fill="none" stroke-linecap="round" stroke-linejoin="round" stroke-width="3" d="M338 233.5C339.37 236.26 337.02 239.24 338.5 242"/>
  <path fill="none" stroke-linecap="round" stroke-linejoin="round" stroke-width="4" d="M368 222.5C367.23 225.17 367.23 227.83 368 230.5"/>
  <path fill="none" stroke-linecap="round" stroke-linejoin="round" stroke-width="3" d="M170.5 75.5C169.84 78.75 168.17 81.22 165 82.5"/>
  <path fill="none" stroke-linecap="round" stroke-linejoin="round" stroke-width="4" d="M346.5 134C343.61 133.79 341.52 136.74 338.5 136"/>
  <path fill="none" stroke-linecap="round" stroke-linejoin="round" stroke-width="4" d="M54.5 174.5C56.16 176.73 57.16 179.15 56.5 182"/>
  <path fill="none" stroke-linecap="round" stroke-linejoin="round" stroke-width="3" d="M136 38C134.78 40.47 131.62 42.05 132.5 45.5"/>
  <path fill="none" stroke-linecap="round" stroke-linejoin="round" stroke-width="4" d="M349.5 104.5C347.07 105.96 345.02 108.15 342 108.5"/>
  <path fill="none" stroke-linecap="round" stroke-linejoin="round" stroke-width="3" d="M80.5 196.5C77.89 197.27 76.61 193.73 74 194.5"/>
  <path fill="none" stroke-linecap="round" stroke-linejoin="round" stroke-width="4" d="M338.5 82.5C334.67 84 330.83 85.5 327 87"/>
  <path fill="none" stroke-linecap="round" stroke-linejoin="round" stroke-width="3" d="M365.5 140C363.7 140.62 362.22 142.41 360 141.5"/>
</svg>
